<svg fill="#003B6F" height="427" viewBox="0 0 480 427" width="480" xmlns="http://www.w3.org/2000/svg" xmlns:xlink="http://www.w3.org/1999/xlink"><g><path d="m373.905 409.438c-116.004 0-232.007 0-348.3151 0 0-136.479 0-272.959 0-409.438 26.8715.101246 53.7936.404984 80.6651.202492 6.084-.050623 7.757 1.468068 7.757 7.644068-.253 105.39744-.152 210.74344-.152 316.14044v8.049h35.339c63.883 0 127.817.051 191.7-.051 14.652 0 28.24-3.695 38.228-15.085 23.576-26.932 8.67-69.101-26.618-75.783-4.715-.911-9.633-1.316-14.45-1.316-27.074-.101-54.199-.051-81.273-.051-2.13 0-4.31 0-6.541 0 0-26.121 0-51.433 0-77.301h6.997c26.314 0 52.577.051 78.891-.051 4.208 0 8.467-.455 12.624-1.265 19.875-4.05 32.297-18.376 33.361-38.322 1.116-20.401-10.089-37.0051-29.558-42.5736-6.49-1.8731-13.487-2.5818-20.281-2.683-33.564-.2532-67.127-.1013-100.691-.1013-1.978 0-3.904.1519-6.693.3038v229.4741c-29.254 0-57.647 0-86.09 0 0-102.36 0-204.365 0-306.826016h7.706c67.128 0 134.307-.101246 201.435.101246 10.85.050623 21.852.55685 32.55 2.22741 28.747 4.50544 53.439 16.85746 71.235 40.54896 16.275 21.616 21.953 46.32 19.266 72.9984-2.941 29.513-15.717 53.458-40.713 70.214-3.853 2.582-7.96 4.759-12.168 6.682-4.157 1.924-8.619 3.24-13.841 5.214 2.535.709 4.056 1.165 5.577 1.62 16.376 4.556 30.319 13.112 41.777 25.565 20.433 22.274 28.697 48.8 27.936 78.769-1.267 49.459-32.245 88.59-80.208 100.234-8.467 2.025-17.036 3.24-25.452 4.859z"/></g></svg>